<?xml version="1.0" encoding="UTF-8" standalone="no"?>
<svg
   viewBox="0 -0.5 14 13"
   shape-rendering="crispEdges"
   version="1.1"
   id="svg4"
   sodipodi:docname="icon.svg"
   width="14"
   height="13"
   inkscape:version="1.3.2 (091e20e, 2023-11-25, custom)"
   xmlns:inkscape="http://www.inkscape.org/namespaces/inkscape"
   xmlns:sodipodi="http://sodipodi.sourceforge.net/DTD/sodipodi-0.dtd"
   xmlns="http://www.w3.org/2000/svg"
   xmlns:svg="http://www.w3.org/2000/svg">
  <defs
     id="defs4" />
  <sodipodi:namedview
     id="namedview4"
     pagecolor="#505050"
     bordercolor="#eeeeee"
     borderopacity="1"
     inkscape:showpageshadow="0"
     inkscape:pageopacity="0"
     inkscape:pagecheckerboard="0"
     inkscape:deskcolor="#505050"
     inkscape:zoom="5.4305556"
     inkscape:cx="31.672634"
     inkscape:cy="9.1150895"
     inkscape:window-width="2560"
     inkscape:window-height="1369"
     inkscape:window-x="1072"
     inkscape:window-y="384"
     inkscape:window-maximized="1"
     inkscape:current-layer="svg4" />
  <metadata
     id="metadata1">Made with Pixels to Svg https://codepen.io/shshaw/pen/XbxvNj</metadata>
  <path
     stroke="#000000"
     d="m 2,0 h 8 M 1,1 h 1 m 6,0 h 4 M 1,2 h 1 m 8,0 h 3 M 0,3 h 1 m 2,0 h 2 m 1,0 h 2 m 2,0 h 4 M 0,4 h 1 m 1,0 h 6 m 1,0 h 5 M 0,5 h 5 m 1,0 h 5 m 1,0 h 2 M 1,6 h 1 m 1,0 h 2 m 2,0 h 2 m 3,0 h 2 M 1,7 h 1 m 10,0 h 2 M 1,8 h 1 m 2,0 h 1 m 2,0 h 1 m 4,0 h 2 M 1,9 h 1 m 2,0 h 1 m 2,0 h 1 m 4,0 h 2 M 1,10 h 1 m 9,0 h 2 M 1,11 h 1 m 8,0 h 2 M 2,12 h 9"
     id="path2" />
  <path
     stroke="#363636"
     d="M 2,1 H 8 M 2,2 h 8 M 1,3 h 2 m 2,0 h 1 m 2,0 h 2 M 1,4 h 1 m 6,0 h 1 m 2,1 h 1 m -2,1 h 2 m -2,1 h 1 m -1,2 h 2 M 2,10 h 1 m 6,0 h 2 m -9,1 h 8"
     id="path3" />
  <path
     stroke="#a0a0a0"
     d="M 5,5 H 6 M 2,6 h 1 m 2,0 h 2 m 2,0 h 1 M 2,7 h 8 m 1,0 h 1 M 2,8 h 2 m 1,0 h 2 m 1,0 h 4 M 2,9 h 2 m 1,0 h 2 m 1,0 h 2 m -7,1 h 6"
     id="path4" />
</svg>
